<svg xmlns="http://www.w3.org/2000/svg" width="600" height="400" viewBox="0 0 600 400"><rect width="600" height="400" fill="#7a5230"/><rect x="22" y="22" width="556" height="356" fill="none" stroke="#f2dcb0" stroke-width="12"/><path fill="#f2dcb0" d="M158.4 174.4L158.4 278.3Q158.4 279.8 155.0 282.0Q151.5 284.3 146.4 285.9Q141.2 287.6 135.4 287.6L135.4 287.6L131.2 287.6L131.2 169.2L131.2 157.9L131.2 157.9L160.2 169.2L259.9 169.2L259.9 174.4L158.4 174.4ZM250.3 169.2L248.5 169.2L260.5 155.9L284.9 174.7Q284.2 175.9 282.4 177.0Q280.7 178.1 277.7 178.6L277.7 178.6L277.7 259.3Q277.7 267.8 275.4 273.8Q273.1 279.8 266.0 283.4Q258.8 287.0 244.2 288.3L244.2 288.3Q243.9 281.9 242.9 277.4Q242.0 273.0 239.6 270.0L239.6 270.0Q237.2 267.2 233.8 265.0Q230.3 262.8 222.8 261.5L222.8 261.5L222.8 259.1Q222.8 259.1 225.7 259.3Q228.7 259.5 232.8 259.8Q236.8 260.0 240.8 260.2Q244.8 260.4 246.6 260.4L246.6 260.4Q248.8 260.4 249.6 259.4Q250.3 258.4 250.3 256.7L250.3 256.7L250.3 169.2ZM248.5 139.4L263.1 121.1Q263.1 121.1 265.8 123.1Q268.5 125.2 272.6 128.3Q276.8 131.5 281.3 135.0Q285.8 138.5 289.7 141.6L289.7 141.6Q289.0 144.6 284.2 144.6L284.2 144.6L118.1 144.6L116.6 139.4L248.5 139.4ZM212.0 175.9L240.3 183.6Q239.8 185.3 238.1 186.3Q236.5 187.3 233.3 187.1L233.3 187.1Q228.7 192.3 221.8 199.2Q215.0 206.0 208.3 211.4L208.3 211.4L205.2 211.4Q206.5 206.4 207.8 200.1Q209.1 193.8 210.2 187.4Q211.3 181.0 212.0 175.9L212.0 175.9ZM189.8 111.7L223.7 114.3Q223.5 116.1 222.2 117.5Q220.9 118.9 217.0 119.6L217.0 119.6L217.0 172.3L189.8 172.3L189.8 111.7ZM168.4 178.1L169.9 177.2Q181.9 179.0 188.3 182.8Q194.6 186.6 196.8 190.9Q198.9 195.3 197.8 199.4Q196.7 203.4 193.3 205.9Q189.8 208.4 185.3 208.2Q180.8 208.0 176.1 204.0L176.1 204.0Q176.3 196.9 173.9 189.9Q171.5 182.9 168.4 178.1L168.4 178.1ZM215.5 208.8L215.5 275.8Q215.4 276.5 209.9 278.6Q204.4 280.8 194.5 280.8L194.5 280.8L189.6 280.8L189.6 208.8L215.5 208.8ZM218.1 235.8L229.1 222.3Q229.1 222.3 232.5 224.9Q235.9 227.5 240.6 231.1Q245.3 234.7 249.0 238.0L249.0 238.0Q248.3 241.0 244.0 241.0L244.0 241.0L162.1 241.0L160.6 235.8L218.1 235.8ZM220.7 208.8L230.5 197.1Q230.5 197.1 233.6 199.4Q236.6 201.6 240.9 204.8Q245.1 208.0 248.7 211.0L248.7 211.0Q247.9 214.0 243.7 214.0L243.7 214.0L165.6 214.0L164.1 208.8L220.7 208.8Z"/><path fill="#f2dcb0" d="M340.8 182.6L368.5 185.4Q368.4 187.1 367.2 188.3Q366.0 189.5 362.8 190.0L362.8 190.0L362.8 259.6Q362.8 259.6 357.6 259.6Q352.4 259.6 346.5 259.6L346.5 259.6L340.8 259.6L340.8 182.6ZM314.2 189.6L343.4 195.4Q342.8 197.2 341.2 198.5Q339.5 199.8 336.2 199.8L336.2 199.8Q335.1 214.6 332.3 230.6Q329.5 246.6 323.5 261.4Q317.5 276.2 306.4 287.7L306.4 287.7L304.5 286.0Q308.2 275.9 310.5 263.6Q312.7 251.4 313.8 238.5Q314.9 225.5 314.9 213.0Q314.9 200.4 314.2 189.6L314.2 189.6ZM364.3 213.1L373.7 199.1Q373.7 199.1 376.7 201.8Q379.6 204.4 383.5 208.2Q387.4 212.0 390.4 215.4L390.4 215.4Q389.6 218.3 385.6 218.3L385.6 218.3L349.1 218.3L349.1 213.1L364.3 213.1ZM363.5 174.5L373.7 160.6Q373.7 160.6 377.0 163.2Q380.2 165.8 384.6 169.6Q389.1 173.4 392.4 176.7L392.4 176.7Q391.7 179.7 387.4 179.7L387.4 179.7L309.2 179.7L307.7 174.5L363.5 174.5ZM362.3 142.1L371.9 129.1Q371.9 129.1 374.9 131.6Q378.0 134.1 382.0 137.7Q386.1 141.2 389.4 144.3L389.4 144.3Q388.7 147.3 384.5 147.3L384.5 147.3L313.2 147.3L311.7 142.1L362.3 142.1ZM336.5 112.3L365.6 114.7Q365.4 116.4 364.3 117.6Q363.2 118.8 360.0 119.3L360.0 119.3L360.0 177.2L336.5 177.2L336.5 112.3ZM325.4 221.8L326.9 221.1Q331.9 234.2 338.8 242.1Q345.6 250.0 355.0 253.9Q364.5 257.9 377.2 259.2Q390.0 260.5 407.0 260.5L407.0 260.5Q413.3 260.5 423.4 260.5Q433.5 260.5 444.8 260.4Q456.0 260.3 466.4 260.2Q476.8 260.1 483.4 259.9L483.4 259.9L483.4 262.2Q476.6 263.8 473.2 269.8Q469.7 275.9 469.6 283.3L469.6 283.3Q464.4 283.3 456.0 283.3Q447.5 283.3 438.1 283.3Q428.7 283.3 420.2 283.3Q411.6 283.3 406.3 283.3L406.3 283.3Q388.2 283.3 374.6 280.7Q361.1 278.1 351.6 271.4Q342.1 264.8 335.7 252.7Q329.3 240.7 325.4 221.8L325.4 221.8ZM395.6 248.8L384.6 229.2Q388.5 227.9 395.3 225.3Q402.0 222.8 410.5 219.3Q419.0 215.9 427.7 212.2L427.7 212.2L428.5 214.1Q425.7 217.4 420.7 222.9Q415.7 228.5 409.3 235.2Q403.0 241.8 395.6 248.8L395.6 248.8ZM388.9 147.6L388.9 136.2L413.3 147.6L410.9 147.6L410.9 158.7Q410.9 158.7 405.6 158.7Q400.4 158.7 388.9 158.7L388.9 158.7L388.9 147.6ZM388.9 149.3L405.4 149.3L410.9 152.6L410.9 228.9L390.2 236.8L398.9 229.2Q401.5 238.5 398.8 244.2Q396.1 250.0 393.0 252.0L393.0 252.0L379.1 231.3Q385.6 227.6 387.2 225.5Q388.9 223.5 388.9 220.5L388.9 220.5L388.9 149.3ZM456.4 160.6L483.1 168.0Q482.5 169.7 480.7 170.9Q479.0 172.1 475.8 171.9L475.8 171.9Q467.0 201.5 449.2 222.8Q431.4 244.2 403.5 255.7L403.5 255.7L401.5 253.7Q423.3 239.8 437.2 215.5Q451.1 191.3 456.4 160.6L456.4 160.6ZM419.0 112.3L449.2 115.1Q449.0 116.9 447.6 118.3Q446.2 119.7 442.9 120.3L442.9 120.3Q442.7 130.8 443.1 142.7Q443.5 154.7 444.7 166.6Q445.9 178.5 448.1 189.4Q450.3 200.2 454.0 208.6Q457.7 217.0 463.1 221.8L463.1 221.8Q464.6 223.5 465.7 223.5Q466.8 223.5 467.7 221.8L467.7 221.8Q469.6 218.9 471.8 213.2Q474.0 207.6 475.8 203.0L475.8 203.0L477.5 203.3L474.4 230.5Q478.1 236.6 479.4 241.8Q480.7 247.0 477.7 249.8L477.7 249.8Q474.4 253.1 469.7 253.3Q465.1 253.5 460.4 251.3Q455.7 249.2 451.6 245.9L451.6 245.9Q443.3 239.2 437.6 228.5Q432.0 217.8 428.5 204.1Q425.0 190.4 423.0 175.0Q421.1 159.7 420.3 143.7Q419.4 127.7 419.0 112.3L419.0 112.3ZM449.4 117.3L451.1 116.4Q463.3 118.0 468.8 122.0Q474.4 126.0 475.0 130.4Q475.7 134.9 473.0 138.1Q470.3 141.4 465.7 141.9Q461.0 142.5 456.2 138.6L456.2 138.6Q456.2 132.8 454.1 127.0Q452.0 121.2 449.4 117.3L449.4 117.3ZM452.3 147.6L463.1 133.4Q463.1 133.4 466.4 136.1Q469.7 138.8 474.4 142.6Q479.0 146.4 482.7 149.9L482.7 149.9Q481.9 152.8 477.5 152.8L477.5 152.8L400.9 152.8L400.9 147.6L452.3 147.6Z"/></svg>
