<svg xmlns="http://www.w3.org/2000/svg" width="600" height="400" viewBox="0 0 600 400"><rect width="600" height="400" fill="#9b5a34"/><rect x="22" y="22" width="556" height="356" fill="none" stroke="#ffe9b8" stroke-width="12"/><path fill="#ffe9b8" d="M310.6 110.7L310.6 104.0L378.7 104.0L378.7 110.7L310.6 110.7ZM310.6 165.0L310.6 158.2L378.7 158.2L378.7 165.0L310.6 165.0ZM310.6 219.7L310.6 213.0L378.7 213.0L378.7 219.7L310.6 219.7ZM365.8 271.5L365.8 104.0L363.4 104.0L378 87.2L408.5 111.0Q407.3 112.4 404.9 113.8Q402.5 115.3 398.6 116.0L398.6 116.0L398.6 275.1Q398.6 286.2 395.8 294.0Q392.9 301.8 383.8 306.4Q374.6 311.1 355.7 312.8L355.7 312.8Q355.0 304.6 353.4 298.9Q351.8 293.1 348.5 289.5L348.5 289.5Q344.9 285.7 339.5 282.9Q334.1 280.2 323.3 278.2L323.3 278.2L323.3 275.1Q323.3 275.1 328.1 275.4Q332.9 275.6 339.5 276.0Q346.1 276.3 352.0 276.6Q357.8 276.8 360.2 276.8L360.2 276.8Q363.6 276.8 364.7 275.5Q365.8 274.2 365.8 271.5L365.8 271.5ZM296.6 181.0L296.6 104.0L296.6 101.6L296.6 91.3L333.8 104.0L329.0 104.0L329.0 180.8Q329.0 195.4 327.6 210.4Q326.2 225.4 321.6 239.8Q317.0 254.2 307.9 267.4Q298.8 280.6 283.7 292.0Q268.6 303.4 245.5 312.6L245.5 312.6L243.6 310.6Q261.1 297.2 271.7 282.3Q282.2 267.4 287.6 251.2Q293.0 235.0 294.8 217.4Q296.6 199.8 296.6 181.0L296.6 181.0ZM191.5 267.7L191.5 108.8L191.5 95.8L226.6 108.8L223.4 108.8L223.4 257.1Q223.4 258.3 220.3 260.8Q217.2 263.4 211.3 265.5Q205.4 267.7 197.3 267.7L197.3 267.7L191.5 267.7ZM246 254.2L246 108.8L243.6 108.8L258.5 92.5L288 115.5Q286.8 117.2 284.4 118.5Q282 119.8 278.4 120.8L278.4 120.8L278.4 243.9Q278.4 245.1 274.1 247.6Q269.8 250.2 263.5 252.2Q257.3 254.2 251.3 254.2L251.3 254.2L246 254.2ZM208.1 115.5L208.1 108.8L258 108.8L258 115.5L208.1 115.5ZM208.1 174.1L208.1 167.4L258 167.4L258 174.1L208.1 174.1ZM208.1 232.9L208.1 226.2L258 226.2L258 232.9L208.1 232.9Z"/></svg>
