<svg xmlns="http://www.w3.org/2000/svg" width="600" height="400" viewBox="0 0 600 400"><rect width="600" height="400" fill="#85683f"/><rect x="22" y="22" width="556" height="356" fill="none" stroke="#f5e6c0" stroke-width="12"/><path fill="#f5e6c0" d="M331.9 109.5L367.0 125.8Q366 128.0 362.6 129.1Q359.3 130.2 353.0 128.0L353.0 128.0L361.2 126.8Q355.2 133.0 346.2 140.1Q337.2 147.2 327.5 153.4Q317.8 159.7 309.4 163.5L309.4 163.5L309.1 160.6L322.8 160.6Q322.3 171.7 319.3 178.8Q316.3 185.8 311.8 188L311.8 188L297.8 157.3Q297.8 157.3 300.6 156.6Q303.4 155.8 305.0 154.9L305.0 154.9Q308.9 152.2 313.1 146.7Q317.3 141.2 321 134.4Q324.7 127.5 327.6 120.9Q330.5 114.3 331.9 109.5L331.9 109.5ZM355.0 139.8L357.1 138.6Q372 141.9 380.3 147.2Q388.6 152.5 391.8 158.4Q395.0 164.2 394.2 169.6Q393.4 175.0 389.8 178.4Q386.2 181.8 381 181.9Q375.8 182 370.1 177.7L370.1 177.7Q369.4 171.2 366.8 164.4Q364.3 157.5 361.2 151.0Q358.1 144.6 355.0 139.8L355.0 139.8ZM315.1 184.9L306.7 157.3Q313.2 157.3 324.8 156.9Q336.5 156.6 350.9 156.0Q365.3 155.4 380.4 154.6L380.4 154.6L380.6 157.5Q374.4 160.4 364.4 165.0Q354.5 169.5 341.9 174.7Q329.3 179.8 315.1 184.9L315.1 184.9ZM237.4 108.8L271.9 126.1Q271.0 128.0 267.6 129.1Q264.2 130.2 258.2 127.8L258.2 127.8L266.2 126.8Q260.2 132.8 251.2 139.9Q242.2 147.0 232.3 153.1Q222.5 159.2 213.8 162.8L213.8 162.8L213.6 160.2L226.8 160.2Q226.1 171.9 222.6 178.6Q219.1 185.4 214.3 187.3L214.3 187.3L202.6 156.6Q202.6 156.6 205.3 155.8Q208.1 155.1 209.8 154.2L209.8 154.2Q213.6 151.5 217.8 146.0Q222 140.5 226.0 133.6Q229.9 126.8 232.9 120.2Q235.9 113.6 237.4 108.8L237.4 108.8ZM258.5 136.9L260.9 135.7Q276.2 140.0 285 146.2Q293.8 152.5 297.1 159.1Q300.5 165.7 299.8 171.4Q299.0 177.2 295.3 180.8Q291.6 184.4 286.2 184.5Q280.8 184.6 275.0 180.1L275.0 180.1Q274.3 172.6 271.7 165.0Q269.0 157.3 265.6 150.0Q262.1 142.6 258.5 136.9L258.5 136.9ZM215.8 185.4L207.4 157.8Q214.3 157.8 226.6 157.4Q238.8 157.0 254.3 156.3Q269.8 155.6 285.8 154.9L285.8 154.9L286.1 158.0Q279.4 160.9 268.6 165.3Q257.8 169.8 244.3 174.9Q230.9 180.1 215.8 185.4L215.8 185.4ZM259.7 225.4L259.7 304.2Q259.7 305.8 255.2 308.4Q250.8 310.9 244.0 312.9Q237.1 315.0 229.9 315.0L229.9 315.0L224.9 315.0L224.9 218.7L224.9 204.6L224.9 204.6L261.8 218.7L370.6 218.7L370.6 225.4L259.7 225.4ZM341.3 218.7L338.9 218.7L354.2 201.7L386.2 225.9Q385.2 227.4 382.9 228.8Q380.6 230.2 376.8 231.0L376.8 231.0L376.8 305.8Q376.8 306.6 371.8 308.5Q366.7 310.4 359.9 312.1Q353.0 313.8 347.3 313.8L347.3 313.8L341.3 313.8L341.3 218.7ZM239.3 290.5L360.2 290.5L360.2 297.2L239.3 297.2L239.3 290.5ZM239.0 253.0L360 253.0L360 259.8L239.0 259.8L239.0 253.0ZM366.5 190.6L382.8 170.5Q382.8 170.5 385.8 172.6Q388.8 174.8 393.5 178.4Q398.2 182 403.2 186.0Q408.2 189.9 412.6 193.5L412.6 193.5Q411.6 197.4 405.8 197.4L405.8 197.4L189.4 197.4L187.4 190.6L366.5 190.6ZM361.0 105.9L377.3 85.0Q377.3 85.0 380.3 87.3Q383.3 89.6 388.0 93.2Q392.6 96.8 397.7 101.0Q402.7 105.2 407.0 108.8L407.0 108.8Q406.1 112.6 400.3 112.6L400.3 112.6L197.3 112.6L195.4 105.9L361.0 105.9Z"/></svg>
